<?xml version="1.0" standalone="no"?>
<!DOCTYPE svg PUBLIC "-//W3C//DTD SVG 20010904//EN"
 "http://www.w3.org/TR/2001/REC-SVG-20010904/DTD/svg10.dtd">
<svg version="1.0" xmlns="http://www.w3.org/2000/svg"
 width="512.000000pt" height="512.000000pt" viewBox="0 0 512.000000 512.000000"
 preserveAspectRatio="xMidYMid meet">

<g transform="translate(0.000000,512.000000) scale(0.100000,-0.100000)"
fill="#981b1b" stroke="none">
<path d="M1695 4259 c-27 -4 -77 -18 -110 -30 -133 -48 -149 -64 -875 -843
-377 -405 -690 -748 -697 -763 -15 -36 -15 -90 0 -125 7 -15 320 -359 697
-764 741 -795 742 -797 895 -851 l80 -28 1470 0 c1399 0 1473 1 1530 18 197
61 345 203 406 389 l24 73 0 1225 0 1225 -23 72 c-12 41 -44 104 -73 147 -76
115 -183 193 -329 242 -53 18 -120 19 -1500 20 -795 1 -1467 -2 -1495 -7z
m1013 -766 c38 -21 119 -101 322 -321 150 -161 276 -292 280 -290 4 2 133 137
285 302 295 316 317 335 403 336 152 1 258 -165 194 -302 -9 -20 -145 -175
-302 -344 -157 -169 -285 -310 -285 -314 0 -4 126 -143 280 -309 154 -166 290
-320 303 -343 74 -138 -35 -308 -198 -308 -77 1 -106 25 -395 336 -152 165
-281 300 -285 302 -4 2 -130 -129 -280 -290 -285 -308 -332 -348 -407 -348
-125 0 -223 98 -223 223 0 65 50 130 333 433 152 164 277 301 277 304 0 3
-130 146 -288 317 -293 315 -322 353 -322 425 0 57 24 112 67 155 68 69 156
82 241 36z"/>
</g>
</svg>
