<?xml version="1.0" standalone="no"?>
<!DOCTYPE svg PUBLIC "-//W3C//DTD SVG 20010904//EN"
 "http://www.w3.org/TR/2001/REC-SVG-20010904/DTD/svg10.dtd">
<svg version="1.0" xmlns="http://www.w3.org/2000/svg"
 width="512.000000pt" height="512.000000pt" viewBox="0 0 512.000000 512.000000"
 preserveAspectRatio="xMidYMid meet">

<g transform="translate(0.000000,512.000000) scale(0.100000,-0.100000)"
fill="#49ab35" stroke="none">
<path d="M347 4742 l-347 -347 915 -915 c503 -503 915 -919 915 -925 0 -6
-412 -422 -915 -925 l-915 -915 342 -342 c189 -189 347 -343 353 -343 5 0 578
568 1273 1263 l1262 1262 -1268 1268 -1267 1267 -348 -348z"/>
<path d="M2177 4742 l-347 -347 915 -915 c503 -503 915 -919 915 -925 0 -6
-412 -422 -915 -925 l-915 -915 343 -343 c188 -188 347 -341 354 -340 6 2 543
523 1193 1158 650 635 1232 1202 1292 1260 l110 105 -1203 1175 c-661 646
-1246 1216 -1299 1267 l-96 92 -347 -347z"/>
</g>
</svg>
